<mxfile host="app.diagrams.net" modified="2024-04-01T16:32:38.768Z" agent="Mozilla/5.0 (X11; Ubuntu; Linux x86_64; rv:124.0) Gecko/20100101 Firefox/124.0" etag="NQ02a86SD2yvwHKen9Oj" version="24.2.1" type="github">
  <diagram id="R2lEEEUBdFMjLlhIrx00" name="Page-1">
    <mxGraphModel dx="1274" dy="684" grid="1" gridSize="10" guides="1" tooltips="1" connect="1" arrows="1" fold="1" page="1" pageScale="1" pageWidth="1169" pageHeight="827" math="0" shadow="0" extFonts="Permanent Marker^https://fonts.googleapis.com/css?family=Permanent+Marker">
      <root>
        <mxCell id="0" />
        <mxCell id="1" parent="0" />
        <mxCell id="CP5bFm40odVV3JDgffe8-56" value="" style="group" parent="1" vertex="1" connectable="0">
          <mxGeometry y="520" width="440" height="210" as="geometry" />
        </mxCell>
        <mxCell id="CP5bFm40odVV3JDgffe8-29" value="Proveedor" style="whiteSpace=wrap;html=1;align=center;" parent="CP5bFm40odVV3JDgffe8-56" vertex="1">
          <mxGeometry x="170" y="70" width="100" height="40" as="geometry" />
        </mxCell>
        <mxCell id="CP5bFm40odVV3JDgffe8-30" value="&lt;div&gt;nombre&lt;/div&gt;" style="ellipse;whiteSpace=wrap;html=1;align=center;" parent="CP5bFm40odVV3JDgffe8-56" vertex="1">
          <mxGeometry x="100" y="3" width="100" height="40" as="geometry" />
        </mxCell>
        <mxCell id="CP5bFm40odVV3JDgffe8-31" value="cif" style="ellipse;whiteSpace=wrap;html=1;align=center;" parent="CP5bFm40odVV3JDgffe8-56" vertex="1">
          <mxGeometry x="19" y="40" width="100" height="40" as="geometry" />
        </mxCell>
        <mxCell id="CP5bFm40odVV3JDgffe8-32" value="id" style="ellipse;whiteSpace=wrap;html=1;align=center;fontStyle=4;" parent="CP5bFm40odVV3JDgffe8-56" vertex="1">
          <mxGeometry x="19" y="100" width="100" height="40" as="geometry" />
        </mxCell>
        <mxCell id="CP5bFm40odVV3JDgffe8-35" value="direccion" style="ellipse;whiteSpace=wrap;html=1;align=center;" parent="CP5bFm40odVV3JDgffe8-56" vertex="1">
          <mxGeometry x="245" y="3" width="100" height="40" as="geometry" />
        </mxCell>
        <mxCell id="CP5bFm40odVV3JDgffe8-36" value="provincia" style="ellipse;whiteSpace=wrap;html=1;align=center;" parent="CP5bFm40odVV3JDgffe8-56" vertex="1">
          <mxGeometry x="324" y="40" width="100" height="40" as="geometry" />
        </mxCell>
        <mxCell id="CP5bFm40odVV3JDgffe8-37" value="localidad" style="ellipse;whiteSpace=wrap;html=1;align=center;" parent="CP5bFm40odVV3JDgffe8-56" vertex="1">
          <mxGeometry x="319" y="100" width="100" height="40" as="geometry" />
        </mxCell>
        <mxCell id="CP5bFm40odVV3JDgffe8-38" value="codigo_postal" style="ellipse;whiteSpace=wrap;html=1;align=center;" parent="CP5bFm40odVV3JDgffe8-56" vertex="1">
          <mxGeometry x="272" y="143" width="100" height="40" as="geometry" />
        </mxCell>
        <mxCell id="CP5bFm40odVV3JDgffe8-39" value="email" style="ellipse;whiteSpace=wrap;html=1;align=center;" parent="CP5bFm40odVV3JDgffe8-56" vertex="1">
          <mxGeometry x="170" y="163" width="100" height="40" as="geometry" />
        </mxCell>
        <mxCell id="CP5bFm40odVV3JDgffe8-40" value="telefono" style="ellipse;whiteSpace=wrap;html=1;align=center;" parent="CP5bFm40odVV3JDgffe8-56" vertex="1">
          <mxGeometry x="68" y="143" width="100" height="40" as="geometry" />
        </mxCell>
        <mxCell id="CP5bFm40odVV3JDgffe8-41" value="" style="endArrow=none;html=1;rounded=0;exitX=1;exitY=0.5;exitDx=0;exitDy=0;entryX=0;entryY=0.75;entryDx=0;entryDy=0;" parent="CP5bFm40odVV3JDgffe8-56" source="CP5bFm40odVV3JDgffe8-32" target="CP5bFm40odVV3JDgffe8-29" edge="1">
          <mxGeometry relative="1" as="geometry">
            <mxPoint x="470" y="110" as="sourcePoint" />
            <mxPoint x="630" y="110" as="targetPoint" />
          </mxGeometry>
        </mxCell>
        <mxCell id="CP5bFm40odVV3JDgffe8-42" value="" style="endArrow=none;html=1;rounded=0;exitX=1;exitY=0.5;exitDx=0;exitDy=0;entryX=0;entryY=0.25;entryDx=0;entryDy=0;" parent="CP5bFm40odVV3JDgffe8-56" source="CP5bFm40odVV3JDgffe8-31" target="CP5bFm40odVV3JDgffe8-29" edge="1">
          <mxGeometry relative="1" as="geometry">
            <mxPoint x="470" y="110" as="sourcePoint" />
            <mxPoint x="630" y="110" as="targetPoint" />
          </mxGeometry>
        </mxCell>
        <mxCell id="CP5bFm40odVV3JDgffe8-43" value="" style="endArrow=none;html=1;rounded=0;exitX=1;exitY=1;exitDx=0;exitDy=0;entryX=0.25;entryY=0;entryDx=0;entryDy=0;" parent="CP5bFm40odVV3JDgffe8-56" source="CP5bFm40odVV3JDgffe8-30" target="CP5bFm40odVV3JDgffe8-29" edge="1">
          <mxGeometry relative="1" as="geometry">
            <mxPoint x="470" y="110" as="sourcePoint" />
            <mxPoint x="630" y="110" as="targetPoint" />
          </mxGeometry>
        </mxCell>
        <mxCell id="CP5bFm40odVV3JDgffe8-46" value="" style="endArrow=none;html=1;rounded=0;exitX=0.75;exitY=0;exitDx=0;exitDy=0;entryX=0;entryY=1;entryDx=0;entryDy=0;" parent="CP5bFm40odVV3JDgffe8-56" source="CP5bFm40odVV3JDgffe8-29" target="CP5bFm40odVV3JDgffe8-35" edge="1">
          <mxGeometry relative="1" as="geometry">
            <mxPoint x="470" y="110" as="sourcePoint" />
            <mxPoint x="630" y="110" as="targetPoint" />
          </mxGeometry>
        </mxCell>
        <mxCell id="CP5bFm40odVV3JDgffe8-47" value="" style="endArrow=none;html=1;rounded=0;exitX=1;exitY=0.25;exitDx=0;exitDy=0;entryX=0;entryY=0.5;entryDx=0;entryDy=0;" parent="CP5bFm40odVV3JDgffe8-56" source="CP5bFm40odVV3JDgffe8-29" target="CP5bFm40odVV3JDgffe8-36" edge="1">
          <mxGeometry relative="1" as="geometry">
            <mxPoint x="470" y="110" as="sourcePoint" />
            <mxPoint x="630" y="110" as="targetPoint" />
          </mxGeometry>
        </mxCell>
        <mxCell id="CP5bFm40odVV3JDgffe8-48" value="" style="endArrow=none;html=1;rounded=0;exitX=1;exitY=0;exitDx=0;exitDy=0;entryX=0.25;entryY=1;entryDx=0;entryDy=0;" parent="CP5bFm40odVV3JDgffe8-56" source="CP5bFm40odVV3JDgffe8-40" target="CP5bFm40odVV3JDgffe8-29" edge="1">
          <mxGeometry relative="1" as="geometry">
            <mxPoint x="470" y="110" as="sourcePoint" />
            <mxPoint x="630" y="110" as="targetPoint" />
          </mxGeometry>
        </mxCell>
        <mxCell id="CP5bFm40odVV3JDgffe8-49" value="" style="endArrow=none;html=1;rounded=0;entryX=0;entryY=0.5;entryDx=0;entryDy=0;exitX=1;exitY=0.75;exitDx=0;exitDy=0;" parent="CP5bFm40odVV3JDgffe8-56" source="CP5bFm40odVV3JDgffe8-29" target="CP5bFm40odVV3JDgffe8-37" edge="1">
          <mxGeometry relative="1" as="geometry">
            <mxPoint x="270" y="140" as="sourcePoint" />
            <mxPoint x="630" y="110" as="targetPoint" />
          </mxGeometry>
        </mxCell>
        <mxCell id="CP5bFm40odVV3JDgffe8-50" value="" style="endArrow=none;html=1;rounded=0;exitX=0.75;exitY=1;exitDx=0;exitDy=0;entryX=0;entryY=0;entryDx=0;entryDy=0;" parent="CP5bFm40odVV3JDgffe8-56" source="CP5bFm40odVV3JDgffe8-29" target="CP5bFm40odVV3JDgffe8-38" edge="1">
          <mxGeometry relative="1" as="geometry">
            <mxPoint x="470" y="110" as="sourcePoint" />
            <mxPoint x="630" y="110" as="targetPoint" />
          </mxGeometry>
        </mxCell>
        <mxCell id="CP5bFm40odVV3JDgffe8-51" value="" style="endArrow=none;html=1;rounded=0;exitX=0.5;exitY=0;exitDx=0;exitDy=0;entryX=0.5;entryY=1;entryDx=0;entryDy=0;" parent="CP5bFm40odVV3JDgffe8-56" source="CP5bFm40odVV3JDgffe8-39" target="CP5bFm40odVV3JDgffe8-29" edge="1">
          <mxGeometry relative="1" as="geometry">
            <mxPoint x="470" y="110" as="sourcePoint" />
            <mxPoint x="630" y="110" as="targetPoint" />
          </mxGeometry>
        </mxCell>
        <mxCell id="CP5bFm40odVV3JDgffe8-53" style="edgeStyle=orthogonalEdgeStyle;rounded=0;orthogonalLoop=1;jettySize=auto;html=1;exitX=0.5;exitY=1;exitDx=0;exitDy=0;" parent="CP5bFm40odVV3JDgffe8-56" source="CP5bFm40odVV3JDgffe8-38" target="CP5bFm40odVV3JDgffe8-38" edge="1">
          <mxGeometry relative="1" as="geometry" />
        </mxCell>
        <mxCell id="CP5bFm40odVV3JDgffe8-57" value="" style="group" parent="1" vertex="1" connectable="0">
          <mxGeometry x="660" y="40" width="440" height="250" as="geometry" />
        </mxCell>
        <mxCell id="CP5bFm40odVV3JDgffe8-1" value="&lt;div&gt;Usuario&lt;/div&gt;" style="whiteSpace=wrap;html=1;align=center;" parent="CP5bFm40odVV3JDgffe8-57" vertex="1">
          <mxGeometry x="170" y="90" width="100" height="40" as="geometry" />
        </mxCell>
        <mxCell id="CP5bFm40odVV3JDgffe8-2" value="&lt;div&gt;nombre&lt;/div&gt;" style="ellipse;whiteSpace=wrap;html=1;align=center;" parent="CP5bFm40odVV3JDgffe8-57" vertex="1">
          <mxGeometry x="80" y="30" width="100" height="40" as="geometry" />
        </mxCell>
        <mxCell id="CP5bFm40odVV3JDgffe8-3" value="dni" style="ellipse;whiteSpace=wrap;html=1;align=center;" parent="CP5bFm40odVV3JDgffe8-57" vertex="1">
          <mxGeometry x="20" y="70" width="100" height="40" as="geometry" />
        </mxCell>
        <mxCell id="CP5bFm40odVV3JDgffe8-4" value="id" style="ellipse;whiteSpace=wrap;html=1;align=center;fontStyle=4;" parent="CP5bFm40odVV3JDgffe8-57" vertex="1">
          <mxGeometry x="20" y="120" width="100" height="40" as="geometry" />
        </mxCell>
        <mxCell id="CP5bFm40odVV3JDgffe8-5" value="&lt;div&gt;apellido1&lt;/div&gt;" style="ellipse;whiteSpace=wrap;html=1;align=center;" parent="CP5bFm40odVV3JDgffe8-57" vertex="1">
          <mxGeometry x="170" width="100" height="40" as="geometry" />
        </mxCell>
        <mxCell id="CP5bFm40odVV3JDgffe8-6" value="apellido2" style="ellipse;whiteSpace=wrap;html=1;align=center;" parent="CP5bFm40odVV3JDgffe8-57" vertex="1">
          <mxGeometry x="260" y="30" width="100" height="40" as="geometry" />
        </mxCell>
        <mxCell id="CP5bFm40odVV3JDgffe8-7" value="direccion" style="ellipse;whiteSpace=wrap;html=1;align=center;" parent="CP5bFm40odVV3JDgffe8-57" vertex="1">
          <mxGeometry x="324" y="70" width="100" height="40" as="geometry" />
        </mxCell>
        <mxCell id="CP5bFm40odVV3JDgffe8-8" value="provincia" style="ellipse;whiteSpace=wrap;html=1;align=center;" parent="CP5bFm40odVV3JDgffe8-57" vertex="1">
          <mxGeometry x="324" y="120" width="100" height="40" as="geometry" />
        </mxCell>
        <mxCell id="CP5bFm40odVV3JDgffe8-9" value="localidad" style="ellipse;whiteSpace=wrap;html=1;align=center;" parent="CP5bFm40odVV3JDgffe8-57" vertex="1">
          <mxGeometry x="300" y="170" width="100" height="40" as="geometry" />
        </mxCell>
        <mxCell id="CP5bFm40odVV3JDgffe8-10" value="codigo_postal" style="ellipse;whiteSpace=wrap;html=1;align=center;" parent="CP5bFm40odVV3JDgffe8-57" vertex="1">
          <mxGeometry x="230" y="210" width="100" height="40" as="geometry" />
        </mxCell>
        <mxCell id="CP5bFm40odVV3JDgffe8-11" value="email" style="ellipse;whiteSpace=wrap;html=1;align=center;" parent="CP5bFm40odVV3JDgffe8-57" vertex="1">
          <mxGeometry x="110" y="210" width="100" height="40" as="geometry" />
        </mxCell>
        <mxCell id="CP5bFm40odVV3JDgffe8-12" value="telefono" style="ellipse;whiteSpace=wrap;html=1;align=center;" parent="CP5bFm40odVV3JDgffe8-57" vertex="1">
          <mxGeometry x="40" y="170" width="100" height="40" as="geometry" />
        </mxCell>
        <mxCell id="CP5bFm40odVV3JDgffe8-14" value="" style="endArrow=none;html=1;rounded=0;exitX=1;exitY=0.5;exitDx=0;exitDy=0;entryX=0;entryY=0.75;entryDx=0;entryDy=0;" parent="CP5bFm40odVV3JDgffe8-57" source="CP5bFm40odVV3JDgffe8-4" target="CP5bFm40odVV3JDgffe8-1" edge="1">
          <mxGeometry relative="1" as="geometry">
            <mxPoint x="470" y="140" as="sourcePoint" />
            <mxPoint x="630" y="140" as="targetPoint" />
          </mxGeometry>
        </mxCell>
        <mxCell id="CP5bFm40odVV3JDgffe8-16" value="" style="endArrow=none;html=1;rounded=0;exitX=1;exitY=0.5;exitDx=0;exitDy=0;entryX=0;entryY=0.25;entryDx=0;entryDy=0;" parent="CP5bFm40odVV3JDgffe8-57" source="CP5bFm40odVV3JDgffe8-3" target="CP5bFm40odVV3JDgffe8-1" edge="1">
          <mxGeometry relative="1" as="geometry">
            <mxPoint x="470" y="140" as="sourcePoint" />
            <mxPoint x="630" y="140" as="targetPoint" />
          </mxGeometry>
        </mxCell>
        <mxCell id="CP5bFm40odVV3JDgffe8-17" value="" style="endArrow=none;html=1;rounded=0;exitX=1;exitY=1;exitDx=0;exitDy=0;entryX=0.25;entryY=0;entryDx=0;entryDy=0;" parent="CP5bFm40odVV3JDgffe8-57" source="CP5bFm40odVV3JDgffe8-2" target="CP5bFm40odVV3JDgffe8-1" edge="1">
          <mxGeometry relative="1" as="geometry">
            <mxPoint x="470" y="140" as="sourcePoint" />
            <mxPoint x="630" y="140" as="targetPoint" />
          </mxGeometry>
        </mxCell>
        <mxCell id="CP5bFm40odVV3JDgffe8-18" value="" style="endArrow=none;html=1;rounded=0;exitX=0.5;exitY=1;exitDx=0;exitDy=0;entryX=0.5;entryY=0;entryDx=0;entryDy=0;" parent="CP5bFm40odVV3JDgffe8-57" source="CP5bFm40odVV3JDgffe8-5" target="CP5bFm40odVV3JDgffe8-1" edge="1">
          <mxGeometry relative="1" as="geometry">
            <mxPoint x="470" y="140" as="sourcePoint" />
            <mxPoint x="630" y="140" as="targetPoint" />
          </mxGeometry>
        </mxCell>
        <mxCell id="CP5bFm40odVV3JDgffe8-19" value="" style="endArrow=none;html=1;rounded=0;exitX=0.75;exitY=0;exitDx=0;exitDy=0;entryX=0;entryY=1;entryDx=0;entryDy=0;" parent="CP5bFm40odVV3JDgffe8-57" source="CP5bFm40odVV3JDgffe8-1" target="CP5bFm40odVV3JDgffe8-6" edge="1">
          <mxGeometry relative="1" as="geometry">
            <mxPoint x="470" y="140" as="sourcePoint" />
            <mxPoint x="630" y="140" as="targetPoint" />
          </mxGeometry>
        </mxCell>
        <mxCell id="CP5bFm40odVV3JDgffe8-20" value="" style="endArrow=none;html=1;rounded=0;exitX=1;exitY=0.25;exitDx=0;exitDy=0;entryX=0;entryY=0.5;entryDx=0;entryDy=0;" parent="CP5bFm40odVV3JDgffe8-57" source="CP5bFm40odVV3JDgffe8-1" target="CP5bFm40odVV3JDgffe8-7" edge="1">
          <mxGeometry relative="1" as="geometry">
            <mxPoint x="470" y="140" as="sourcePoint" />
            <mxPoint x="630" y="140" as="targetPoint" />
          </mxGeometry>
        </mxCell>
        <mxCell id="CP5bFm40odVV3JDgffe8-21" value="" style="endArrow=none;html=1;rounded=0;exitX=1;exitY=0.75;exitDx=0;exitDy=0;entryX=0;entryY=0.5;entryDx=0;entryDy=0;" parent="CP5bFm40odVV3JDgffe8-57" source="CP5bFm40odVV3JDgffe8-1" target="CP5bFm40odVV3JDgffe8-8" edge="1">
          <mxGeometry relative="1" as="geometry">
            <mxPoint x="470" y="140" as="sourcePoint" />
            <mxPoint x="630" y="140" as="targetPoint" />
          </mxGeometry>
        </mxCell>
        <mxCell id="CP5bFm40odVV3JDgffe8-22" value="" style="endArrow=none;html=1;rounded=0;exitX=1;exitY=0;exitDx=0;exitDy=0;entryX=0;entryY=1;entryDx=0;entryDy=0;" parent="CP5bFm40odVV3JDgffe8-57" source="CP5bFm40odVV3JDgffe8-12" target="CP5bFm40odVV3JDgffe8-1" edge="1">
          <mxGeometry relative="1" as="geometry">
            <mxPoint x="470" y="140" as="sourcePoint" />
            <mxPoint x="630" y="140" as="targetPoint" />
          </mxGeometry>
        </mxCell>
        <mxCell id="CP5bFm40odVV3JDgffe8-23" value="" style="endArrow=none;html=1;rounded=0;entryX=0;entryY=0;entryDx=0;entryDy=0;exitX=1;exitY=1;exitDx=0;exitDy=0;" parent="CP5bFm40odVV3JDgffe8-57" source="CP5bFm40odVV3JDgffe8-1" target="CP5bFm40odVV3JDgffe8-9" edge="1">
          <mxGeometry relative="1" as="geometry">
            <mxPoint x="270" y="170" as="sourcePoint" />
            <mxPoint x="630" y="140" as="targetPoint" />
          </mxGeometry>
        </mxCell>
        <mxCell id="CP5bFm40odVV3JDgffe8-24" value="" style="endArrow=none;html=1;rounded=0;exitX=0.75;exitY=1;exitDx=0;exitDy=0;entryX=0.5;entryY=0;entryDx=0;entryDy=0;" parent="CP5bFm40odVV3JDgffe8-57" source="CP5bFm40odVV3JDgffe8-1" target="CP5bFm40odVV3JDgffe8-10" edge="1">
          <mxGeometry relative="1" as="geometry">
            <mxPoint x="470" y="140" as="sourcePoint" />
            <mxPoint x="630" y="140" as="targetPoint" />
          </mxGeometry>
        </mxCell>
        <mxCell id="CP5bFm40odVV3JDgffe8-25" value="" style="endArrow=none;html=1;rounded=0;exitX=0.5;exitY=0;exitDx=0;exitDy=0;entryX=0.25;entryY=1;entryDx=0;entryDy=0;" parent="CP5bFm40odVV3JDgffe8-57" source="CP5bFm40odVV3JDgffe8-11" target="CP5bFm40odVV3JDgffe8-1" edge="1">
          <mxGeometry relative="1" as="geometry">
            <mxPoint x="470" y="140" as="sourcePoint" />
            <mxPoint x="630" y="140" as="targetPoint" />
          </mxGeometry>
        </mxCell>
        <mxCell id="CP5bFm40odVV3JDgffe8-67" value="" style="group" parent="1" vertex="1" connectable="0">
          <mxGeometry x="510" y="677" width="330" height="150" as="geometry" />
        </mxCell>
        <mxCell id="CP5bFm40odVV3JDgffe8-55" value="Ubicacion" style="whiteSpace=wrap;html=1;align=center;" parent="CP5bFm40odVV3JDgffe8-67" vertex="1">
          <mxGeometry x="110" y="50" width="100" height="40" as="geometry" />
        </mxCell>
        <mxCell id="CP5bFm40odVV3JDgffe8-58" value="id" style="ellipse;whiteSpace=wrap;html=1;align=center;fontStyle=4;" parent="CP5bFm40odVV3JDgffe8-67" vertex="1">
          <mxGeometry x="20" width="100" height="40" as="geometry" />
        </mxCell>
        <mxCell id="CP5bFm40odVV3JDgffe8-59" value="nombre" style="ellipse;whiteSpace=wrap;html=1;align=center;" parent="CP5bFm40odVV3JDgffe8-67" vertex="1">
          <mxGeometry x="20" y="96" width="100" height="40" as="geometry" />
        </mxCell>
        <mxCell id="CP5bFm40odVV3JDgffe8-60" value="planta" style="ellipse;whiteSpace=wrap;html=1;align=center;" parent="CP5bFm40odVV3JDgffe8-67" vertex="1">
          <mxGeometry x="200" width="100" height="40" as="geometry" />
        </mxCell>
        <mxCell id="CP5bFm40odVV3JDgffe8-61" value="tipo" style="ellipse;whiteSpace=wrap;html=1;align=center;" parent="CP5bFm40odVV3JDgffe8-67" vertex="1">
          <mxGeometry x="200" y="96" width="100" height="40" as="geometry" />
        </mxCell>
        <mxCell id="CP5bFm40odVV3JDgffe8-62" value="" style="endArrow=none;html=1;rounded=0;exitX=0;exitY=1;exitDx=0;exitDy=0;entryX=0.75;entryY=0;entryDx=0;entryDy=0;" parent="CP5bFm40odVV3JDgffe8-67" source="CP5bFm40odVV3JDgffe8-60" target="CP5bFm40odVV3JDgffe8-55" edge="1">
          <mxGeometry relative="1" as="geometry">
            <mxPoint x="440" y="-130" as="sourcePoint" />
            <mxPoint x="600" y="-130" as="targetPoint" />
          </mxGeometry>
        </mxCell>
        <mxCell id="CP5bFm40odVV3JDgffe8-63" value="" style="endArrow=none;html=1;rounded=0;exitX=1;exitY=1;exitDx=0;exitDy=0;entryX=0.25;entryY=0;entryDx=0;entryDy=0;" parent="CP5bFm40odVV3JDgffe8-67" source="CP5bFm40odVV3JDgffe8-58" target="CP5bFm40odVV3JDgffe8-55" edge="1">
          <mxGeometry relative="1" as="geometry">
            <mxPoint x="440" y="-130" as="sourcePoint" />
            <mxPoint x="600" y="-130" as="targetPoint" />
          </mxGeometry>
        </mxCell>
        <mxCell id="CP5bFm40odVV3JDgffe8-64" value="" style="endArrow=none;html=1;rounded=0;exitX=0.75;exitY=1;exitDx=0;exitDy=0;entryX=0;entryY=0;entryDx=0;entryDy=0;" parent="CP5bFm40odVV3JDgffe8-67" source="CP5bFm40odVV3JDgffe8-55" target="CP5bFm40odVV3JDgffe8-61" edge="1">
          <mxGeometry relative="1" as="geometry">
            <mxPoint x="440" y="-130" as="sourcePoint" />
            <mxPoint x="600" y="-130" as="targetPoint" />
          </mxGeometry>
        </mxCell>
        <mxCell id="CP5bFm40odVV3JDgffe8-65" value="" style="endArrow=none;html=1;rounded=0;exitX=0.25;exitY=1;exitDx=0;exitDy=0;entryX=1;entryY=0;entryDx=0;entryDy=0;" parent="CP5bFm40odVV3JDgffe8-67" source="CP5bFm40odVV3JDgffe8-55" target="CP5bFm40odVV3JDgffe8-59" edge="1">
          <mxGeometry relative="1" as="geometry">
            <mxPoint x="440" y="-130" as="sourcePoint" />
            <mxPoint x="600" y="-130" as="targetPoint" />
          </mxGeometry>
        </mxCell>
        <mxCell id="CP5bFm40odVV3JDgffe8-80" value="" style="group" parent="1" vertex="1" connectable="0">
          <mxGeometry x="410" y="414" width="360" height="162" as="geometry" />
        </mxCell>
        <mxCell id="CP5bFm40odVV3JDgffe8-68" value="Medicamento" style="whiteSpace=wrap;html=1;align=center;" parent="CP5bFm40odVV3JDgffe8-80" vertex="1">
          <mxGeometry x="160" y="62" width="100" height="40" as="geometry" />
        </mxCell>
        <mxCell id="CP5bFm40odVV3JDgffe8-69" value="nombre" style="ellipse;whiteSpace=wrap;html=1;align=center;" parent="CP5bFm40odVV3JDgffe8-80" vertex="1">
          <mxGeometry x="80" y="3" width="100" height="40" as="geometry" />
        </mxCell>
        <mxCell id="CP5bFm40odVV3JDgffe8-70" value="&lt;div&gt;principios_activos&lt;/div&gt;" style="ellipse;whiteSpace=wrap;html=1;align=center;" parent="CP5bFm40odVV3JDgffe8-80" vertex="1">
          <mxGeometry x="240" y="3" width="100" height="40" as="geometry" />
        </mxCell>
        <mxCell id="CP5bFm40odVV3JDgffe8-71" value="concentraciones" style="ellipse;whiteSpace=wrap;html=1;align=center;" parent="CP5bFm40odVV3JDgffe8-80" vertex="1">
          <mxGeometry x="240" y="122" width="100" height="40" as="geometry" />
        </mxCell>
        <mxCell id="CP5bFm40odVV3JDgffe8-72" value="formato" style="ellipse;whiteSpace=wrap;html=1;align=center;" parent="CP5bFm40odVV3JDgffe8-80" vertex="1">
          <mxGeometry x="80" y="122" width="100" height="40" as="geometry" />
        </mxCell>
        <mxCell id="CP5bFm40odVV3JDgffe8-73" value="id" style="ellipse;whiteSpace=wrap;html=1;align=center;fontStyle=4;" parent="CP5bFm40odVV3JDgffe8-80" vertex="1">
          <mxGeometry x="20" y="62" width="100" height="40" as="geometry" />
        </mxCell>
        <mxCell id="CP5bFm40odVV3JDgffe8-74" value="" style="endArrow=none;html=1;rounded=0;exitX=1;exitY=0.5;exitDx=0;exitDy=0;entryX=0;entryY=0.5;entryDx=0;entryDy=0;" parent="CP5bFm40odVV3JDgffe8-80" source="CP5bFm40odVV3JDgffe8-73" target="CP5bFm40odVV3JDgffe8-68" edge="1">
          <mxGeometry relative="1" as="geometry">
            <mxPoint x="450" y="-8" as="sourcePoint" />
            <mxPoint x="610" y="-8" as="targetPoint" />
          </mxGeometry>
        </mxCell>
        <mxCell id="CP5bFm40odVV3JDgffe8-75" value="" style="endArrow=none;html=1;rounded=0;exitX=1;exitY=1;exitDx=0;exitDy=0;entryX=0.25;entryY=0;entryDx=0;entryDy=0;" parent="CP5bFm40odVV3JDgffe8-80" source="CP5bFm40odVV3JDgffe8-69" target="CP5bFm40odVV3JDgffe8-68" edge="1">
          <mxGeometry relative="1" as="geometry">
            <mxPoint x="450" y="-8" as="sourcePoint" />
            <mxPoint x="610" y="-8" as="targetPoint" />
          </mxGeometry>
        </mxCell>
        <mxCell id="CP5bFm40odVV3JDgffe8-76" value="" style="endArrow=none;html=1;rounded=0;exitX=0;exitY=1;exitDx=0;exitDy=0;entryX=0.75;entryY=0;entryDx=0;entryDy=0;" parent="CP5bFm40odVV3JDgffe8-80" source="CP5bFm40odVV3JDgffe8-70" target="CP5bFm40odVV3JDgffe8-68" edge="1">
          <mxGeometry relative="1" as="geometry">
            <mxPoint x="450" y="-8" as="sourcePoint" />
            <mxPoint x="610" y="-8" as="targetPoint" />
          </mxGeometry>
        </mxCell>
        <mxCell id="CP5bFm40odVV3JDgffe8-77" value="" style="endArrow=none;html=1;rounded=0;entryX=0;entryY=0;entryDx=0;entryDy=0;exitX=0.75;exitY=1;exitDx=0;exitDy=0;" parent="CP5bFm40odVV3JDgffe8-80" source="CP5bFm40odVV3JDgffe8-68" target="CP5bFm40odVV3JDgffe8-71" edge="1">
          <mxGeometry relative="1" as="geometry">
            <mxPoint x="450" y="-8" as="sourcePoint" />
            <mxPoint x="610" y="-8" as="targetPoint" />
          </mxGeometry>
        </mxCell>
        <mxCell id="CP5bFm40odVV3JDgffe8-78" value="" style="endArrow=none;html=1;rounded=0;exitX=1;exitY=0;exitDx=0;exitDy=0;entryX=0.25;entryY=1;entryDx=0;entryDy=0;" parent="CP5bFm40odVV3JDgffe8-80" source="CP5bFm40odVV3JDgffe8-72" target="CP5bFm40odVV3JDgffe8-68" edge="1">
          <mxGeometry relative="1" as="geometry">
            <mxPoint x="450" y="-8" as="sourcePoint" />
            <mxPoint x="610" y="-8" as="targetPoint" />
          </mxGeometry>
        </mxCell>
        <mxCell id="CP5bFm40odVV3JDgffe8-92" value="contabiliza" style="shape=rhombus;perimeter=rhombusPerimeter;whiteSpace=wrap;html=1;align=center;" parent="1" vertex="1">
          <mxGeometry x="725" y="465" width="120" height="60" as="geometry" />
        </mxCell>
        <mxCell id="CP5bFm40odVV3JDgffe8-93" value="" style="group" parent="1" vertex="1" connectable="0">
          <mxGeometry x="819" y="385" width="350" height="220" as="geometry" />
        </mxCell>
        <mxCell id="CP5bFm40odVV3JDgffe8-81" value="&lt;div&gt;Existencia&lt;/div&gt;" style="whiteSpace=wrap;html=1;align=center;" parent="CP5bFm40odVV3JDgffe8-93" vertex="1">
          <mxGeometry x="80" y="90" width="100" height="40" as="geometry" />
        </mxCell>
        <mxCell id="CP5bFm40odVV3JDgffe8-82" value="id" style="ellipse;whiteSpace=wrap;html=1;align=center;fontStyle=4;" parent="CP5bFm40odVV3JDgffe8-93" vertex="1">
          <mxGeometry x="80" y="16" width="100" height="40" as="geometry" />
        </mxCell>
        <mxCell id="CP5bFm40odVV3JDgffe8-83" value="fecha_modificacion" style="ellipse;whiteSpace=wrap;html=1;align=center;" parent="CP5bFm40odVV3JDgffe8-93" vertex="1">
          <mxGeometry x="211" y="65" width="120" height="40" as="geometry" />
        </mxCell>
        <mxCell id="CP5bFm40odVV3JDgffe8-84" value="cantidad" style="ellipse;whiteSpace=wrap;html=1;align=center;" parent="CP5bFm40odVV3JDgffe8-93" vertex="1">
          <mxGeometry x="221" y="118" width="100" height="40" as="geometry" />
        </mxCell>
        <mxCell id="CP5bFm40odVV3JDgffe8-85" value="unidad" style="ellipse;whiteSpace=wrap;html=1;align=center;" parent="CP5bFm40odVV3JDgffe8-93" vertex="1">
          <mxGeometry x="160" y="158" width="100" height="40" as="geometry" />
        </mxCell>
        <mxCell id="CP5bFm40odVV3JDgffe8-86" value="fecha_caducidad" style="ellipse;whiteSpace=wrap;html=1;align=center;" parent="CP5bFm40odVV3JDgffe8-93" vertex="1">
          <mxGeometry y="158" width="100" height="40" as="geometry" />
        </mxCell>
        <mxCell id="CP5bFm40odVV3JDgffe8-87" value="" style="endArrow=none;html=1;rounded=0;entryX=0.5;entryY=0;entryDx=0;entryDy=0;exitX=0.5;exitY=1;exitDx=0;exitDy=0;" parent="CP5bFm40odVV3JDgffe8-93" source="CP5bFm40odVV3JDgffe8-82" target="CP5bFm40odVV3JDgffe8-81" edge="1">
          <mxGeometry relative="1" as="geometry">
            <mxPoint x="30" y="50" as="sourcePoint" />
            <mxPoint x="190" y="50" as="targetPoint" />
          </mxGeometry>
        </mxCell>
        <mxCell id="CP5bFm40odVV3JDgffe8-88" value="" style="endArrow=none;html=1;rounded=0;entryX=0;entryY=0.5;entryDx=0;entryDy=0;exitX=1;exitY=0.25;exitDx=0;exitDy=0;" parent="CP5bFm40odVV3JDgffe8-93" source="CP5bFm40odVV3JDgffe8-81" target="CP5bFm40odVV3JDgffe8-83" edge="1">
          <mxGeometry relative="1" as="geometry">
            <mxPoint x="30" y="50" as="sourcePoint" />
            <mxPoint x="190" y="50" as="targetPoint" />
          </mxGeometry>
        </mxCell>
        <mxCell id="CP5bFm40odVV3JDgffe8-89" value="" style="endArrow=none;html=1;rounded=0;entryX=0;entryY=0.5;entryDx=0;entryDy=0;exitX=1;exitY=0.75;exitDx=0;exitDy=0;" parent="CP5bFm40odVV3JDgffe8-93" source="CP5bFm40odVV3JDgffe8-81" target="CP5bFm40odVV3JDgffe8-84" edge="1">
          <mxGeometry relative="1" as="geometry">
            <mxPoint x="30" y="50" as="sourcePoint" />
            <mxPoint x="190" y="50" as="targetPoint" />
          </mxGeometry>
        </mxCell>
        <mxCell id="CP5bFm40odVV3JDgffe8-90" value="" style="endArrow=none;html=1;rounded=0;entryX=0.25;entryY=1;entryDx=0;entryDy=0;exitX=1;exitY=0;exitDx=0;exitDy=0;" parent="CP5bFm40odVV3JDgffe8-93" source="CP5bFm40odVV3JDgffe8-86" target="CP5bFm40odVV3JDgffe8-81" edge="1">
          <mxGeometry relative="1" as="geometry">
            <mxPoint x="30" y="50" as="sourcePoint" />
            <mxPoint x="190" y="50" as="targetPoint" />
          </mxGeometry>
        </mxCell>
        <mxCell id="CP5bFm40odVV3JDgffe8-91" value="" style="endArrow=none;html=1;rounded=0;entryX=0;entryY=0;entryDx=0;entryDy=0;exitX=0.75;exitY=1;exitDx=0;exitDy=0;" parent="CP5bFm40odVV3JDgffe8-93" source="CP5bFm40odVV3JDgffe8-81" target="CP5bFm40odVV3JDgffe8-85" edge="1">
          <mxGeometry relative="1" as="geometry">
            <mxPoint x="30" y="50" as="sourcePoint" />
            <mxPoint x="190" y="50" as="targetPoint" />
          </mxGeometry>
        </mxCell>
        <mxCell id="CP5bFm40odVV3JDgffe8-94" value="situada_en" style="shape=rhombus;perimeter=rhombusPerimeter;whiteSpace=wrap;html=1;align=center;" parent="1" vertex="1">
          <mxGeometry x="812" y="715" width="120" height="60" as="geometry" />
        </mxCell>
        <mxCell id="CP5bFm40odVV3JDgffe8-95" value="" style="endArrow=none;html=1;rounded=0;entryX=0.5;entryY=1;entryDx=0;entryDy=0;exitX=1;exitY=0.5;exitDx=0;exitDy=0;" parent="1" source="CP5bFm40odVV3JDgffe8-94" target="CP5bFm40odVV3JDgffe8-81" edge="1">
          <mxGeometry relative="1" as="geometry">
            <mxPoint x="790" y="525" as="sourcePoint" />
            <mxPoint x="950" y="525" as="targetPoint" />
            <Array as="points">
              <mxPoint x="949" y="745" />
            </Array>
          </mxGeometry>
        </mxCell>
        <mxCell id="CP5bFm40odVV3JDgffe8-96" value="" style="endArrow=none;html=1;rounded=0;entryX=0;entryY=0.5;entryDx=0;entryDy=0;exitX=1;exitY=0.5;exitDx=0;exitDy=0;" parent="1" source="CP5bFm40odVV3JDgffe8-68" target="CP5bFm40odVV3JDgffe8-92" edge="1">
          <mxGeometry relative="1" as="geometry">
            <mxPoint x="790" y="525" as="sourcePoint" />
            <mxPoint x="950" y="525" as="targetPoint" />
          </mxGeometry>
        </mxCell>
        <mxCell id="CP5bFm40odVV3JDgffe8-97" value="" style="endArrow=none;html=1;rounded=0;entryX=0;entryY=0.5;entryDx=0;entryDy=0;exitX=1;exitY=0.5;exitDx=0;exitDy=0;" parent="1" source="CP5bFm40odVV3JDgffe8-92" target="CP5bFm40odVV3JDgffe8-81" edge="1">
          <mxGeometry relative="1" as="geometry">
            <mxPoint x="790" y="525" as="sourcePoint" />
            <mxPoint x="950" y="525" as="targetPoint" />
          </mxGeometry>
        </mxCell>
        <mxCell id="CP5bFm40odVV3JDgffe8-98" value="" style="endArrow=none;html=1;rounded=0;entryX=0;entryY=0.5;entryDx=0;entryDy=0;exitX=1;exitY=0.5;exitDx=0;exitDy=0;" parent="1" source="CP5bFm40odVV3JDgffe8-55" target="CP5bFm40odVV3JDgffe8-94" edge="1">
          <mxGeometry relative="1" as="geometry">
            <mxPoint x="790" y="525" as="sourcePoint" />
            <mxPoint x="950" y="525" as="targetPoint" />
          </mxGeometry>
        </mxCell>
        <mxCell id="CP5bFm40odVV3JDgffe8-99" value="modificada_por" style="shape=rhombus;perimeter=rhombusPerimeter;whiteSpace=wrap;html=1;align=center;" parent="1" vertex="1">
          <mxGeometry x="760" y="365" width="120" height="60" as="geometry" />
        </mxCell>
        <mxCell id="CP5bFm40odVV3JDgffe8-100" value="" style="endArrow=none;html=1;rounded=0;exitX=1;exitY=1;exitDx=0;exitDy=0;entryX=0.25;entryY=0;entryDx=0;entryDy=0;" parent="1" source="CP5bFm40odVV3JDgffe8-99" target="CP5bFm40odVV3JDgffe8-81" edge="1">
          <mxGeometry relative="1" as="geometry">
            <mxPoint x="790" y="445" as="sourcePoint" />
            <mxPoint x="950" y="445" as="targetPoint" />
          </mxGeometry>
        </mxCell>
        <mxCell id="CP5bFm40odVV3JDgffe8-101" value="" style="endArrow=none;html=1;rounded=0;entryX=1;entryY=0;entryDx=0;entryDy=0;exitX=0.5;exitY=1;exitDx=0;exitDy=0;" parent="1" source="CP5bFm40odVV3JDgffe8-1" target="CP5bFm40odVV3JDgffe8-99" edge="1">
          <mxGeometry relative="1" as="geometry">
            <mxPoint x="790" y="445" as="sourcePoint" />
            <mxPoint x="950" y="445" as="targetPoint" />
            <Array as="points">
              <mxPoint x="880" y="350" />
            </Array>
          </mxGeometry>
        </mxCell>
        <mxCell id="568d3hFSJ9wJe04LRry_-12" value="provee" style="shape=rhombus;perimeter=rhombusPerimeter;whiteSpace=wrap;html=1;align=center;" vertex="1" parent="1">
          <mxGeometry x="160" y="440" width="120" height="60" as="geometry" />
        </mxCell>
        <mxCell id="568d3hFSJ9wJe04LRry_-13" value="" style="endArrow=none;html=1;rounded=0;exitX=0.5;exitY=1;exitDx=0;exitDy=0;entryX=0.5;entryY=0;entryDx=0;entryDy=0;" edge="1" parent="1" source="568d3hFSJ9wJe04LRry_-2" target="568d3hFSJ9wJe04LRry_-12">
          <mxGeometry relative="1" as="geometry">
            <mxPoint x="500" y="410" as="sourcePoint" />
            <mxPoint x="660" y="410" as="targetPoint" />
          </mxGeometry>
        </mxCell>
        <mxCell id="568d3hFSJ9wJe04LRry_-14" value="" style="endArrow=none;html=1;rounded=0;exitX=0.5;exitY=0;exitDx=0;exitDy=0;entryX=0.5;entryY=1;entryDx=0;entryDy=0;" edge="1" parent="1" source="CP5bFm40odVV3JDgffe8-29" target="568d3hFSJ9wJe04LRry_-12">
          <mxGeometry relative="1" as="geometry">
            <mxPoint x="500" y="410" as="sourcePoint" />
            <mxPoint x="660" y="410" as="targetPoint" />
          </mxGeometry>
        </mxCell>
        <mxCell id="568d3hFSJ9wJe04LRry_-15" value="modifica" style="shape=rhombus;perimeter=rhombusPerimeter;whiteSpace=wrap;html=1;align=center;" vertex="1" parent="1">
          <mxGeometry x="450" y="30" width="120" height="60" as="geometry" />
        </mxCell>
        <mxCell id="568d3hFSJ9wJe04LRry_-16" value="" style="endArrow=none;html=1;rounded=0;entryX=0;entryY=0;entryDx=0;entryDy=0;exitX=1;exitY=0.5;exitDx=0;exitDy=0;" edge="1" parent="1" source="568d3hFSJ9wJe04LRry_-15" target="CP5bFm40odVV3JDgffe8-1">
          <mxGeometry relative="1" as="geometry">
            <mxPoint x="500" y="330" as="sourcePoint" />
            <mxPoint x="660" y="330" as="targetPoint" />
            <Array as="points">
              <mxPoint x="600" y="60" />
            </Array>
          </mxGeometry>
        </mxCell>
        <mxCell id="568d3hFSJ9wJe04LRry_-17" value="" style="endArrow=none;html=1;rounded=0;entryX=0;entryY=1;entryDx=0;entryDy=0;exitX=1;exitY=0.5;exitDx=0;exitDy=0;" edge="1" parent="1" source="568d3hFSJ9wJe04LRry_-2" target="568d3hFSJ9wJe04LRry_-15">
          <mxGeometry relative="1" as="geometry">
            <mxPoint x="500" y="330" as="sourcePoint" />
            <mxPoint x="660" y="330" as="targetPoint" />
          </mxGeometry>
        </mxCell>
        <mxCell id="568d3hFSJ9wJe04LRry_-27" value="" style="group" vertex="1" connectable="0" parent="1">
          <mxGeometry x="30" y="10" width="320" height="106" as="geometry" />
        </mxCell>
        <mxCell id="568d3hFSJ9wJe04LRry_-5" value="comentario" style="ellipse;whiteSpace=wrap;html=1;align=center;" vertex="1" parent="568d3hFSJ9wJe04LRry_-27">
          <mxGeometry x="220" width="100" height="40" as="geometry" />
        </mxCell>
        <mxCell id="568d3hFSJ9wJe04LRry_-8" value="" style="endArrow=none;html=1;rounded=0;exitX=0.75;exitY=0;exitDx=0;exitDy=0;entryX=0;entryY=1;entryDx=0;entryDy=0;" edge="1" parent="568d3hFSJ9wJe04LRry_-27" source="568d3hFSJ9wJe04LRry_-2" target="568d3hFSJ9wJe04LRry_-5">
          <mxGeometry relative="1" as="geometry">
            <mxPoint x="470" y="40" as="sourcePoint" />
            <mxPoint x="630" y="40" as="targetPoint" />
          </mxGeometry>
        </mxCell>
        <mxCell id="568d3hFSJ9wJe04LRry_-4" value="numero_pedido" style="ellipse;whiteSpace=wrap;html=1;align=center;" vertex="1" parent="568d3hFSJ9wJe04LRry_-27">
          <mxGeometry x="70" width="100" height="40" as="geometry" />
        </mxCell>
        <mxCell id="568d3hFSJ9wJe04LRry_-7" value="" style="endArrow=none;html=1;rounded=0;exitX=1;exitY=1;exitDx=0;exitDy=0;entryX=0.25;entryY=0;entryDx=0;entryDy=0;" edge="1" parent="568d3hFSJ9wJe04LRry_-27" source="568d3hFSJ9wJe04LRry_-4" target="568d3hFSJ9wJe04LRry_-2">
          <mxGeometry relative="1" as="geometry">
            <mxPoint x="490" y="36" as="sourcePoint" />
            <mxPoint x="650" y="36" as="targetPoint" />
          </mxGeometry>
        </mxCell>
        <mxCell id="568d3hFSJ9wJe04LRry_-2" value="Pedido" style="whiteSpace=wrap;html=1;align=center;" vertex="1" parent="568d3hFSJ9wJe04LRry_-27">
          <mxGeometry x="140" y="66" width="100" height="40" as="geometry" />
        </mxCell>
        <mxCell id="568d3hFSJ9wJe04LRry_-3" value="id" style="ellipse;whiteSpace=wrap;html=1;align=center;fontStyle=4;" vertex="1" parent="568d3hFSJ9wJe04LRry_-27">
          <mxGeometry y="66" width="100" height="40" as="geometry" />
        </mxCell>
        <mxCell id="568d3hFSJ9wJe04LRry_-6" value="" style="endArrow=none;html=1;rounded=0;entryX=0;entryY=0.5;entryDx=0;entryDy=0;exitX=1;exitY=0.5;exitDx=0;exitDy=0;" edge="1" parent="568d3hFSJ9wJe04LRry_-27" source="568d3hFSJ9wJe04LRry_-3" target="568d3hFSJ9wJe04LRry_-2">
          <mxGeometry relative="1" as="geometry">
            <mxPoint x="470" y="36" as="sourcePoint" />
            <mxPoint x="630" y="36" as="targetPoint" />
          </mxGeometry>
        </mxCell>
      </root>
    </mxGraphModel>
  </diagram>
</mxfile>
